<?xml version="1.0" encoding="UTF-8" standalone="no"?>
<svg width="200px" height="35px" viewBox="0 0 200 37" version="1.1" xmlns="http://www.w3.org/2000/svg" xmlns:xlink="http://www.w3.org/1999/xlink">
      <g id="Welcome" stroke="none" stroke-width="1" fill="none" fill-rule="evenodd">
          <g id="logo">
              <path d="M31.1277226,18.5277353 C31.1277226,11.4155284 25.3626898,5.65049568 18.2504829,5.65049568 C11.138276,5.65049568 5.37233421,11.4155284 5.37233421,18.5277353 L5.36506202,35.726477 C5.36506202,36.1882614 4.99145299,36.5618704 4.52966859,36.5618704 L1.04628709,36.5618704 C0.585411715,36.5618704 0.210893661,36.1873524 0.210893661,35.726477 L0.216347808,18.5277353 C0.216347808,8.35029815 8.64845816,0.140898782 18.9077075,0.505417567 C28.6806289,0.853573913 36.283709,9.18114645 36.283709,18.960431 L36.283709,35.726477 C36.283709,36.1873524 35.9101,36.5618704 35.4483156,36.5618704 L31.9703882,36.5618704 C31.5095128,36.5618704 31.1359038,36.1882614 31.1349948,35.726477 L31.1277226,18.5277353" id="Fill-1" fill="#FF1769"></path>
              <path d="M24.7563705,15.9497421 C25.1390698,15.9497421 25.3899606,15.5479534 25.2245181,15.2025241 C23.9818818,12.6008963 21.3257125,10.802846 18.2504829,10.802846 C15.1752534,10.802846 12.5199931,12.5999872 11.2764477,15.200706 C11.1119143,15.5461353 11.362805,15.9479241 11.7445953,15.9479241 L24.7563705,15.9497421" id="Fill-2" fill="#FFAE00"></path>
              <path d="M11.3546238,21.1075466 L14.8380053,21.1075466 C15.2988807,21.1075466 15.6733987,21.4820647 15.6733987,21.94294 L15.6733987,35.726477 C15.6733987,36.1873524 15.2988807,36.5618704 14.8380053,36.5618704 L11.3546238,36.5618704 C10.8928394,36.5618704 10.5192304,36.1873524 10.5192304,35.726477 L10.5192304,21.94294 C10.5192304,21.4820647 10.8928394,21.1075466 11.3546238,21.1075466" id="Fill-3" fill="#FCFF17"></path>
              <path d="M21.6629605,21.1075466 L25.146342,21.1075466 C25.6072174,21.1075466 25.9817354,21.4820647 25.9817354,21.94294 L25.9817354,35.726477 C25.9817354,36.1873524 25.6072174,36.5618704 25.146342,36.5618704 L21.6629605,36.5618704 C21.2011761,36.5618704 20.8275671,36.1873524 20.8275671,35.726477 L20.8275671,21.94294 C20.8275671,21.4820647 21.2011761,21.1075466 21.6629605,21.1075466" id="Fill-4" fill="#FCFF17"></path>
              <path d="M54.9196182,30.3214179 C53.4488168,30.3214179 51.0062682,29.9387187 50.2426877,28.6442679 C50.0945167,28.4088306 50.0072504,28.1143067 50.0072504,27.790694 C50.0072504,26.7316806 50.9190018,25.9371932 51.8898399,25.9371932 C52.0652816,25.9371932 52.2134526,25.966282 52.3898033,26.0253686 C53.0370287,26.2017193 53.7724294,26.6135074 54.5960055,26.6135074 C56.4495063,26.6135074 57.6557817,25.3781432 57.6557817,23.4655559 L57.6557817,12.2272872 C57.6557817,11.1100962 58.597531,10.168347 59.7738085,10.168347 C60.8919086,10.168347 61.8327488,11.1100962 61.8327488,12.2272872 L61.8327488,23.5246425 C61.8327488,28.1724842 58.9502324,30.3214179 54.9196182,30.3214179" id="Fill-5" fill="#FFFFFF"></path>
              <path d="M77.8124888,30.3214179 C71.8392894,30.3214179 68.955864,26.9671179 68.955864,22.1420164 L68.955864,12.256376 C68.955864,11.1100962 69.8985223,10.168347 71.1047977,10.168347 C72.2510775,10.168347 73.1937358,11.1100962 73.1937358,12.256376 L73.1937358,21.9947544 C73.1937358,24.7309179 74.7818014,26.6135074 77.8124888,26.6135074 C80.8422671,26.6135074 82.402153,24.7309179 82.402153,21.9947544 L82.402153,12.256376 C82.402153,11.1100962 83.3429932,10.168347 84.5783574,10.168347 C85.7255462,10.168347 86.6672955,11.1100962 86.6672955,12.256376 L86.6672955,22.1120186 C86.6672955,26.9962067 83.7838701,30.3214179 77.8124888,30.3214179" id="Fill-6" fill="#FFFFFF"></path>
              <path d="M106.529479,30.1441582 C105.912251,30.1441582 105.324112,29.8796321 104.941413,29.3496708 L99.4699951,22.1120186 L97.939198,23.9364305 L97.939198,28.0852179 C97.939198,29.2024089 96.9983578,30.1441582 95.8211712,30.1441582 C94.7039802,30.1441582 93.7622309,29.2024089 93.7622309,28.0852179 L93.7622309,12.2272872 C93.7622309,11.1100962 94.7039802,10.168347 95.8802578,10.168347 C96.9983578,10.168347 97.939198,11.1100962 97.939198,12.2272872 L97.939198,19.111329 L104.411452,10.9328365 C104.765062,10.4628709 105.35411,10.2274335 105.912251,10.2274335 C106.971264,10.2274335 107.913014,11.0800984 107.913014,12.1400209 C107.913014,12.5808977 107.765752,13.0217746 107.472137,13.375385 L102.235247,19.5531149 L108.148451,26.9380291 C108.412977,27.2907306 108.560239,27.7025186 108.560239,28.1143067 C108.560239,29.1442313 107.677576,30.1441582 106.529479,30.1441582" id="Fill-7" fill="#FFFFFF"></path>
              <path d="M127.434313,29.9678074 L117.519584,29.9678074 C116.224224,29.9678074 115.16521,28.908794 115.16521,27.6143433 L115.16521,12.6981619 C115.16521,11.4037111 116.224224,10.3446977 117.519584,10.3446977 L127.434313,10.3446977 C128.405151,10.3446977 129.227818,11.1682738 129.227818,12.1981984 C129.227818,13.1981253 128.405151,14.0226104 127.434313,14.0226104 L119.343087,14.0226104 L119.343087,18.1704888 L127.227964,18.1704888 C128.198802,18.1704888 129.023287,18.9949739 129.023287,20.0230805 C129.023287,21.0239164 128.198802,21.8474925 127.227964,21.8474925 L119.343087,21.8474925 L119.343087,26.2898947 L127.434313,26.2898947 C128.405151,26.2898947 129.227818,27.1134708 129.227818,28.0852179 C129.227818,29.1442313 128.405151,29.9678074 127.434313,29.9678074" id="Fill-8" fill="#FFFFFF"></path>
              <path d="M146.754717,29.9678074 L138.458961,29.9678074 C137.16451,29.9678074 136.105497,28.908794 136.105497,27.6143433 L136.105497,12.6981619 C136.105497,11.4037111 137.16451,10.3446977 138.458961,10.3446977 L146.432014,10.3446977 C150.168104,10.3446977 152.080691,12.7281597 152.080691,15.3461499 C152.080691,17.8177873 150.549894,19.4649395 148.696394,19.8476388 C150.785332,20.1703424 152.462482,22.201103 152.462482,24.6727403 C152.462482,27.6143433 150.491717,29.9678074 146.754717,29.9678074 L146.754717,29.9678074 Z M145.519353,13.933526 L140.282464,13.933526 L140.282464,18.1995775 L145.519353,18.1995775 C146.931977,18.1995775 147.81464,17.3178239 147.81464,16.0815507 C147.81464,14.8461865 146.931977,13.933526 145.519353,13.933526 L145.519353,13.933526 Z M145.666615,21.7893149 L140.282464,21.7893149 L140.282464,26.3489813 L145.666615,26.3489813 C147.25559,26.3489813 148.19643,25.4963164 148.19643,24.0836925 C148.19643,22.8483283 147.314676,21.7893149 145.666615,21.7893149 L145.666615,21.7893149 Z" id="Fill-9" fill="#FFFFFF"></path>
              <path d="M168.148607,30.3214179 C162.234494,30.3214179 157.910265,26.0835462 157.910265,20.1703424 C157.910265,14.2580477 162.234494,10.021085 168.148607,10.021085 C174.090899,10.021085 178.415128,14.2580477 178.415128,20.1703424 C178.415128,26.0835462 174.090899,30.3214179 168.148607,30.3214179 L168.148607,30.3214179 Z M168.148607,13.7280865 C164.528872,13.7280865 162.204496,16.4942478 162.204496,20.1703424 C162.204496,23.8191664 164.528872,26.6135074 168.148607,26.6135074 C171.766524,26.6135074 174.119988,23.8191664 174.119988,20.1703424 C174.119988,16.4942478 171.766524,13.7280865 168.148607,13.7280865 L168.148607,13.7280865 Z" id="Fill-10" fill="#FFFFFF"></path>
              <path d="M197.72008,30.1441582 C197.072854,30.1441582 196.425629,29.8205455 196.042929,29.2614955 L191.600527,22.7892417 L187.129036,29.2914933 C186.747246,29.8496343 186.129109,30.1441582 185.481884,30.1441582 C184.422871,30.1441582 183.452032,29.3496708 183.452032,28.1433955 C183.452032,27.7316074 183.569297,27.3489081 183.804734,26.9962067 L188.806186,19.9058163 L184.157435,13.2572119 C183.921998,12.9345082 183.833823,12.5808977 183.833823,12.1981984 C183.833823,11.1973626 184.62831,10.1983448 185.864583,10.1983448 C186.540897,10.1983448 187.188123,10.5210484 187.599911,11.1100962 L191.600527,17.0523887 L195.542966,11.139185 C195.925665,10.5501372 196.572891,10.1983448 197.278294,10.1983448 C198.426391,10.1983448 199.367232,11.1100962 199.367232,12.1691097 C199.367232,12.5518089 199.249968,12.963597 199.01453,13.2863007 L194.395777,19.8767276 L199.39723,26.9671179 C199.631758,27.3198194 199.749931,27.7025186 199.749931,28.1143067 C199.749931,29.0269672 198.984532,30.1441582 197.72008,30.1441582" id="Fill-11" fill="#FFFFFF"></path>
          </g>
      </g>
  </svg>
